{
	"asset":{
		"generator":"Khronos glTF Blender I/O v3.6.27",
		"version":"2.0"
	},
	"scene":0,
	"scenes":[
		{
			"name":"Scene",
			"nodes":[
				0,
				1,
				2,
				3,
				4,
				5,
				6
			]
		}
	],
	"nodes":[
		{
			"mesh":0,
			"name":"Cube"
		},
		{
			"mesh":1,
			"name":"Cube.004"
		},
		{
			"mesh":2,
			"name":"Cube.003"
		},
		{
			"mesh":3,
			"name":"Cube.001"
		},
		{
			"mesh":4,
			"name":"Cube.006"
		},
		{
			"mesh":5,
			"name":"Cube.002"
		},
		{
			"mesh":6,
			"name":"Cube.005"
		}
	],
	"materials":[
		{
			"doubleSided":true,
			"name":"Material.001",
			"pbrMetallicRoughness":{
				"baseColorFactor":[
					0.9130977988243103,
					1,
					0.8796225190162659,
					1
				],
				"metallicFactor":0,
				"roughnessFactor":0.5
			}
		},
		{
			"doubleSided":true,
			"name":"Material.005",
			"pbrMetallicRoughness":{
				"baseColorFactor":[
					0.9130977988243103,
					1,
					0.8796225190162659,
					1
				],
				"metallicFactor":0,
				"roughnessFactor":0.5
			}
		},
		{
			"doubleSided":true,
			"name":"Material.004",
			"pbrMetallicRoughness":{
				"baseColorFactor":[
					0.9130977988243103,
					1,
					0.8796225190162659,
					1
				],
				"metallicFactor":0,
				"roughnessFactor":0.5
			}
		},
		{
			"doubleSided":true,
			"name":"Material.002",
			"pbrMetallicRoughness":{
				"baseColorFactor":[
					0.9130977988243103,
					1,
					0.8796225190162659,
					1
				],
				"metallicFactor":0,
				"roughnessFactor":0.5
			}
		},
		{
			"doubleSided":true,
			"name":"Material.007",
			"pbrMetallicRoughness":{
				"baseColorFactor":[
					0.9130977988243103,
					1,
					0.8796225190162659,
					1
				],
				"metallicFactor":0,
				"roughnessFactor":0.5
			}
		},
		{
			"doubleSided":true,
			"name":"Material.003",
			"pbrMetallicRoughness":{
				"baseColorFactor":[
					0.9130977988243103,
					1,
					0.8796225190162659,
					1
				],
				"metallicFactor":0,
				"roughnessFactor":0.5
			}
		},
		{
			"doubleSided":true,
			"name":"Material.006",
			"pbrMetallicRoughness":{
				"baseColorFactor":[
					0.9130977988243103,
					1,
					0.8796225190162659,
					1
				],
				"metallicFactor":0,
				"roughnessFactor":0.5
			}
		}
	],
	"meshes":[
		{
			"name":"Cube",
			"primitives":[
				{
					"attributes":{
						"POSITION":0,
						"NORMAL":1,
						"TEXCOORD_0":2
					},
					"indices":3,
					"material":0
				}
			]
		},
		{
			"name":"Cube.004",
			"primitives":[
				{
					"attributes":{
						"POSITION":4,
						"NORMAL":5,
						"TEXCOORD_0":6
					},
					"indices":7,
					"material":1
				}
			]
		},
		{
			"name":"Cube.003",
			"primitives":[
				{
					"attributes":{
						"POSITION":8,
						"NORMAL":9,
						"TEXCOORD_0":10
					},
					"indices":11,
					"material":2
				}
			]
		},
		{
			"name":"Cube.001",
			"primitives":[
				{
					"attributes":{
						"POSITION":12,
						"NORMAL":13,
						"TEXCOORD_0":14
					},
					"indices":15,
					"material":3
				}
			]
		},
		{
			"name":"Cube.006",
			"primitives":[
				{
					"attributes":{
						"POSITION":16,
						"NORMAL":17,
						"TEXCOORD_0":18
					},
					"indices":19,
					"material":4
				}
			]
		},
		{
			"name":"Cube.002",
			"primitives":[
				{
					"attributes":{
						"POSITION":20,
						"NORMAL":21,
						"TEXCOORD_0":22
					},
					"indices":23,
					"material":5
				}
			]
		},
		{
			"name":"Cube.005",
			"primitives":[
				{
					"attributes":{
						"POSITION":24,
						"NORMAL":25,
						"TEXCOORD_0":26
					},
					"indices":27,
					"material":6
				}
			]
		}
	],
	"accessors":[
		{
			"bufferView":0,
			"componentType":5126,
			"count":344,
			"max":[
				1.0664076805114746,
				1.0672922134399414,
				1.0668455362319946
			],
			"min":[
				-1.0679376125335693,
				-1.0682802200317383,
				-1.0663776397705078
			],
			"type":"VEC3"
		},
		{
			"bufferView":1,
			"componentType":5126,
			"count":344,
			"type":"VEC3"
		},
		{
			"bufferView":2,
			"componentType":5126,
			"count":344,
			"type":"VEC2"
		},
		{
			"bufferView":3,
			"componentType":5123,
			"count":1392,
			"type":"SCALAR"
		},
		{
			"bufferView":4,
			"componentType":5126,
			"count":4,
			"max":[
				-1,
				0.9175794124603271,
				0.9175794124603271
			],
			"min":[
				-1,
				-0.9175794124603271,
				-0.9175794124603271
			],
			"type":"VEC3"
		},
		{
			"bufferView":5,
			"componentType":5126,
			"count":4,
			"type":"VEC3"
		},
		{
			"bufferView":6,
			"componentType":5126,
			"count":4,
			"type":"VEC2"
		},
		{
			"bufferView":7,
			"componentType":5123,
			"count":6,
			"type":"SCALAR"
		},
		{
			"bufferView":8,
			"componentType":5126,
			"count":4,
			"max":[
				0.9252824783325195,
				1,
				0.9252824783325195
			],
			"min":[
				-0.9252824783325195,
				1,
				-0.9252824783325195
			],
			"type":"VEC3"
		},
		{
			"bufferView":9,
			"componentType":5126,
			"count":4,
			"type":"VEC3"
		},
		{
			"bufferView":10,
			"componentType":5126,
			"count":4,
			"type":"VEC2"
		},
		{
			"bufferView":11,
			"componentType":5123,
			"count":6,
			"type":"SCALAR"
		},
		{
			"bufferView":12,
			"componentType":5126,
			"count":4,
			"max":[
				0.9342264533042908,
				0.9342264533042908,
				1
			],
			"min":[
				-0.9342264533042908,
				-0.9342264533042908,
				1
			],
			"type":"VEC3"
		},
		{
			"bufferView":13,
			"componentType":5126,
			"count":4,
			"type":"VEC3"
		},
		{
			"bufferView":14,
			"componentType":5126,
			"count":4,
			"type":"VEC2"
		},
		{
			"bufferView":15,
			"componentType":5123,
			"count":6,
			"type":"SCALAR"
		},
		{
			"bufferView":16,
			"componentType":5126,
			"count":4,
			"max":[
				1,
				0.942301869392395,
				0.942301869392395
			],
			"min":[
				1,
				-0.942301869392395,
				-0.942301869392395
			],
			"type":"VEC3"
		},
		{
			"bufferView":17,
			"componentType":5126,
			"count":4,
			"type":"VEC3"
		},
		{
			"bufferView":18,
			"componentType":5126,
			"count":4,
			"type":"VEC2"
		},
		{
			"bufferView":19,
			"componentType":5123,
			"count":6,
			"type":"SCALAR"
		},
		{
			"bufferView":20,
			"componentType":5126,
			"count":4,
			"max":[
				0.9428170323371887,
				0.9428170323371887,
				-1
			],
			"min":[
				-0.9428170323371887,
				-0.9428170323371887,
				-1
			],
			"type":"VEC3"
		},
		{
			"bufferView":21,
			"componentType":5126,
			"count":4,
			"type":"VEC3"
		},
		{
			"bufferView":22,
			"componentType":5126,
			"count":4,
			"type":"VEC2"
		},
		{
			"bufferView":23,
			"componentType":5123,
			"count":6,
			"type":"SCALAR"
		},
		{
			"bufferView":24,
			"componentType":5126,
			"count":4,
			"max":[
				0.9131181240081787,
				-1,
				0.9131181240081787
			],
			"min":[
				-0.9131181240081787,
				-1,
				-0.9131181240081787
			],
			"type":"VEC3"
		},
		{
			"bufferView":25,
			"componentType":5126,
			"count":4,
			"type":"VEC3"
		},
		{
			"bufferView":26,
			"componentType":5126,
			"count":4,
			"type":"VEC2"
		},
		{
			"bufferView":27,
			"componentType":5123,
			"count":6,
			"type":"SCALAR"
		}
	],
	"bufferViews":[
		{
			"buffer":0,
			"byteLength":4128,
			"byteOffset":0,
			"target":34962
		},
		{
			"buffer":0,
			"byteLength":4128,
			"byteOffset":4128,
			"target":34962
		},
		{
			"buffer":0,
			"byteLength":2752,
			"byteOffset":8256,
			"target":34962
		},
		{
			"buffer":0,
			"byteLength":2784,
			"byteOffset":11008,
			"target":34963
		},
		{
			"buffer":0,
			"byteLength":48,
			"byteOffset":13792,
			"target":34962
		},
		{
			"buffer":0,
			"byteLength":48,
			"byteOffset":13840,
			"target":34962
		},
		{
			"buffer":0,
			"byteLength":32,
			"byteOffset":13888,
			"target":34962
		},
		{
			"buffer":0,
			"byteLength":12,
			"byteOffset":13920,
			"target":34963
		},
		{
			"buffer":0,
			"byteLength":48,
			"byteOffset":13932,
			"target":34962
		},
		{
			"buffer":0,
			"byteLength":48,
			"byteOffset":13980,
			"target":34962
		},
		{
			"buffer":0,
			"byteLength":32,
			"byteOffset":14028,
			"target":34962
		},
		{
			"buffer":0,
			"byteLength":12,
			"byteOffset":14060,
			"target":34963
		},
		{
			"buffer":0,
			"byteLength":48,
			"byteOffset":14072,
			"target":34962
		},
		{
			"buffer":0,
			"byteLength":48,
			"byteOffset":14120,
			"target":34962
		},
		{
			"buffer":0,
			"byteLength":32,
			"byteOffset":14168,
			"target":34962
		},
		{
			"buffer":0,
			"byteLength":12,
			"byteOffset":14200,
			"target":34963
		},
		{
			"buffer":0,
			"byteLength":48,
			"byteOffset":14212,
			"target":34962
		},
		{
			"buffer":0,
			"byteLength":48,
			"byteOffset":14260,
			"target":34962
		},
		{
			"buffer":0,
			"byteLength":32,
			"byteOffset":14308,
			"target":34962
		},
		{
			"buffer":0,
			"byteLength":12,
			"byteOffset":14340,
			"target":34963
		},
		{
			"buffer":0,
			"byteLength":48,
			"byteOffset":14352,
			"target":34962
		},
		{
			"buffer":0,
			"byteLength":48,
			"byteOffset":14400,
			"target":34962
		},
		{
			"buffer":0,
			"byteLength":32,
			"byteOffset":14448,
			"target":34962
		},
		{
			"buffer":0,
			"byteLength":12,
			"byteOffset":14480,
			"target":34963
		},
		{
			"buffer":0,
			"byteLength":48,
			"byteOffset":14492,
			"target":34962
		},
		{
			"buffer":0,
			"byteLength":48,
			"byteOffset":14540,
			"target":34962
		},
		{
			"buffer":0,
			"byteLength":32,
			"byteOffset":14588,
			"target":34962
		},
		{
			"buffer":0,
			"byteLength":12,
			"byteOffset":14620,
			"target":34963
		}
	],
	"buffers":[
		{
			"byteLength":14632,
			"uri":"cubo_final_blooming.bin"
		}
	]
}
