{
	"asset":{
		"generator":"Khronos glTF Blender I/O v3.6.27",
		"version":"2.0"
	},
	"scene":0,
	"scenes":[
		{
			"name":"Scene",
			"nodes":[
				0
			]
		}
	],
	"nodes":[
		{
			"mesh":0,
			"name":"Sphere",
			"scale":[
				0.7365665435791016,
				0.7365665435791016,
				0.7365665435791016
			],
			"translation":[
				-0.17223435640335083,
				1.5452375411987305,
				-0.06555421650409698
			]
		}
	],
	"materials":[
		{
			"doubleSided":true,
			"name":"Material.004",
			"pbrMetallicRoughness":{
				"baseColorFactor":[
					0.24619412422180176,
					0.24619412422180176,
					0.24619412422180176,
					1
				],
				"metallicFactor":0,
				"roughnessFactor":0.5
			}
		}
	],
	"meshes":[
		{
			"name":"Sphere.001",
			"primitives":[
				{
					"attributes":{
						"POSITION":0,
						"NORMAL":1,
						"TEXCOORD_0":2
					},
					"indices":3,
					"material":0
				}
			]
		}
	],
	"accessors":[
		{
			"bufferView":0,
			"componentType":5126,
			"count":689,
			"max":[
				0.5174354314804077,
				0.4475744962692261,
				0.5135408043861389
			],
			"min":[
				-0.5018664598464966,
				-1.9564588069915771,
				-0.5057610869407654
			],
			"type":"VEC3"
		},
		{
			"bufferView":1,
			"componentType":5126,
			"count":689,
			"type":"VEC3"
		},
		{
			"bufferView":2,
			"componentType":5126,
			"count":689,
			"type":"VEC2"
		},
		{
			"bufferView":3,
			"componentType":5123,
			"count":3252,
			"type":"SCALAR"
		}
	],
	"bufferViews":[
		{
			"buffer":0,
			"byteLength":8268,
			"byteOffset":0,
			"target":34962
		},
		{
			"buffer":0,
			"byteLength":8268,
			"byteOffset":8268,
			"target":34962
		},
		{
			"buffer":0,
			"byteLength":5512,
			"byteOffset":16536,
			"target":34962
		},
		{
			"buffer":0,
			"byteLength":6504,
			"byteOffset":22048,
			"target":34963
		}
	],
	"buffers":[
		{
			"byteLength":28552,
			"uri":"pieza_tablero.bin"
		}
	]
}
